<svg width="16" height="11" viewBox="0 0 16 11" fill="none" xmlns="http://www.w3.org/2000/svg">
<path d="M4.95088 3.24916C5.68822 3.24916 6.27622 3.46383 6.71488 3.89316C7.15355 4.32249 7.37288 4.93383 7.37288 5.72716V10.3892H4.99288V6.38516C4.99288 5.49849 4.66155 5.05516 3.99888 5.05516C3.62555 5.05516 3.32222 5.19049 3.08888 5.46116C2.85555 5.73183 2.73888 6.14716 2.73888 6.70716V10.3892H0.358883V0.42116H2.73888V4.66316C2.94422 4.19649 3.23355 3.84649 3.60688 3.61316C3.98955 3.37049 4.43755 3.24916 4.95088 3.24916ZM9.02652 8.84916C10.5852 7.87849 11.7099 7.01983 12.4005 6.27316C13.1005 5.51716 13.4505 4.80783 13.4505 4.14516C13.4505 3.77183 13.3432 3.47316 13.1285 3.24916C12.9139 3.01583 12.6059 2.89916 12.2045 2.89916C11.7659 2.89916 11.4205 3.06249 11.1685 3.38916C10.9259 3.70649 10.7999 4.17316 10.7905 4.78916L8.73252 4.15916C8.75119 3.16049 9.09186 2.38583 9.75452 1.83516C10.4265 1.28449 11.2945 1.00916 12.3585 1.00916C13.1332 1.00916 13.7819 1.15383 14.3045 1.44316C14.8272 1.72316 15.2145 2.08716 15.4665 2.53516C15.7185 2.98316 15.8445 3.46383 15.8445 3.97716C15.8445 4.84516 15.5179 5.64316 14.8645 6.37116C14.2205 7.09916 13.2405 7.84116 11.9245 8.59716V8.61116C12.5405 8.57383 13.1612 8.55516 13.7865 8.55516H15.9565V10.3892H9.02652V8.84916Z" fill="black" fill-opacity="0.8"/>
</svg>
