<svg width="14" height="11" viewBox="0 0 14 11" fill="none" xmlns="http://www.w3.org/2000/svg">
<path d="M5.23506 3.24916C5.9724 3.24916 6.5604 3.46383 6.99906 3.89316C7.43773 4.32249 7.65706 4.93383 7.65706 5.72716V10.3892H5.27706V6.38516C5.27706 5.49849 4.94573 5.05516 4.28306 5.05516C3.90973 5.05516 3.6064 5.19049 3.37306 5.46116C3.13973 5.73183 3.02306 6.14716 3.02306 6.70716V10.3892H0.643063V0.42116H3.02306V4.66316C3.2284 4.19649 3.51773 3.84649 3.89106 3.61316C4.27373 3.37049 4.72173 3.24916 5.23506 3.24916ZM13.5807 1.14916V10.3892H11.2567V3.51516C10.538 4.16849 9.81004 4.56049 9.0727 4.69116L8.8487 2.70316C9.3247 2.64716 9.85204 2.46049 10.4307 2.14316C11.0187 1.81649 11.4294 1.48516 11.6627 1.14916H13.5807Z" fill="black" fill-opacity="0.8"/>
</svg>
